# xmcd
#
# Track frame offsets: 
#        150
#        20123
#        32799
#        53011
#        67398
#        81564
#        99013
#        106868
#        131980
#        150368
#        161895
#        178961
#        195500
#
# Disc length: 2846 seconds
#
# Revision: 0
# Processed by: cddbd v1.5.1PL0 Copyright (c) Steve Scherf et al.
# Submitted via: ExactAudioCopy v0.95a5
#
DISCID=b40b1c0d
DTITLE=Catfish Keith - Rolling Sea
DYEAR=2003
DGENRE=
TTITLE0=Weep Like A Willow (Hey Pretty Mama)
TTITLE1=She's A Hum Dinger From Dingersville
TTITLE2=Racketeer's Blues
TTITLE3=Bye And Bye, I'm Going To See The King
TTITLE4=Out On The Rollin' Sea
TTITLE5=Jealous Hearted, See
TTITLE6=My Little Girl (She Bust Her Drawers)
TTITLE7=Roll You In My Arms (Just Like A Wagon Wheel)
TTITLE8=Mr Crump Don't Like It
TTITLE9=Soul Of A Man
TTITLE10=Monday Morning Blues
TTITLE11=Sign Of Judgement
TTITLE12=Tell Everybody In Your Neighborhood
EXTD=Without Track 14 - which is empty and a waste of 2 minutes\n\n\n
EXTT0=
EXTT1=
EXTT2=
EXTT3=
EXTT4=
EXTT5=
EXTT6=
EXTT7=
EXTT8=
EXTT9=
EXTT10=
EXTT11=
EXTT12=
PLAYORDER=
